<?xml version="1.0" encoding="UTF-8"?>
<svg version="1.1" viewBox="0 0 2048 693" width="1730" height="586" xmlns="http://www.w3.org/2000/svg">
<path transform="translate(788,259)" d="m0 0 18 1 16 4 14 7 11 9 9 12 6 13 4 13 4 25 5-19 6-16 8-15 10-13 11-9 14-7 16-4 19-1 18 2 13 4 13 7 11 10 9 14 6 14 4 18 1 8v207h-98l-1-169-3-10-6-9-9-5-9-2h-9l-12 3-9 6-5 8-3 13-1 165h-98l-1-167-3-12-4-6-1-3-4-2-10-4-5-1h-9l-12 3-9 6-5 8-3 11-1 167h-98v-275h98l1 74 6-21 6-15 8-15 11-13 12-9 13-6 14-3z" fill="#FEFEFE"/>
<path transform="translate(1171,261)" d="m0 0h29l21 2 25 6 16 7 10 6 10 8 7 7 10 15 6 15 4 16 2 14v186h-98v-66h-2l-2 10-8 20-8 12-11 12-10 7-13 6-18 4h-26l-14-3-13-5-11-6-13-12-9-14-6-16-2-11-1-17 2-19 5-15 6-11 9-10 8-7 15-8 16-5 15-3 9-1 81-1v-17l-2-9-5-8-7-5-7-2h-20l-9 3-8 7-5 11-2 7-15-1-73-10-5-2 4-20 5-15 8-15 7-9 6-7 10-8 15-9 18-7 23-5zm-7 166-10 3-9 8-2 5v12l4 8 8 5 6 2 8 1h10l12-3 9-5 7-7 5-11 1-5v-13z" fill="#FEFEFE"/>
<path transform="translate(1907,261)" d="m0 0h30l26 3 19 5 17 7 12 8 10 9 8 9 8 14 6 16 3 14 1 10v186l-1 1h-96l-1-1-1-64-7 21-8 15-8 10-9 9-13 8-15 5-11 2h-26l-17-4-12-5-11-7-13-13-8-14-5-15-2-12v-24l3-15 5-13 9-13 11-10 14-8 18-6 24-4h82l-1-21-4-11-8-7-9-3h-19l-11 4-5 4-5 8-4 12-15-1-72-10-5-1 2-16 5-17 8-16 9-12 11-11 14-9 15-7 16-5 23-4zm-7 166-9 3-6 4-4 5-2 5v10l4 8 6 5 9 3 7 1h10l12-3 8-4 6-5 6-10 2-6v-16z" fill="#FEFEFE"/>
<path transform="translate(1506,268)" d="m0 0h99l1 170 4 11 4 6 8 5 7 2h17l11-4 7-6 5-10 1-4 1-170h99v274l-1 1h-97l-1-1v-76l-6 23-8 19-7 12-8 10-9 8-10 6-15 5-14 2h-20l-16-3-15-6-9-7-6-5-9-13-6-13-5-19-2-21z" fill="#FEFEFE"/>
<path transform="translate(1438,174)" d="m0 0h39l22 3v11l-5 53-1 3h-29l-7 3-3 1-2 5-2 6-1 9h44v81h-44v194h-98v-194h-29l-1-1v-80h30v-15l3-17 6-15 7-12 10-11 11-8 16-8 11-4z" fill="#FEFEFE"/>
<path transform="translate(355,155)" d="m0 0h63l39 2 36 4 26 5 21 7 11 6 5 4 2 3v8l-4 6-16 8-16 5-32 6-36 5-44 4-74 3-30 5-31 7-30 10-12 6-7 6-1 6 4 3 14 4 20 3 13 1h71l55-4 28-3 39-7 24-7 14-7 3-1 2-4v-6l-4-5-14-7v-2h10l17 4 12 6 5 5 3 5-1 6-5 6-10 6-19 7-36 8-43 6-36 3-43 2h-68l-18 6-11 6-6 7-1 9 6 7 2 1-1 3-11-1-10-5-6-7-1-2v-9l6-7 12-6 15-4h5v-2h-9l-26-5-18-6-13-7-6-7-1-5 3-7 7-6 16-8 20-6 17-3 11-1-32-4-25-5-20-5-16-6-11-7-5-6v-8l4-5 12-6 17-5 31-6 36-4 58-4zm27 14-47 3-27 3-49 8-26 7-18 8-5 6 2 4 10 4 16 3 16 2 15 1h96l45-3 47-5 29-5 21-5 14-6 4-5-1-4-12-6-14-4-28-4-28-2z" fill="#FEFEFE"/>
<path transform="translate(1994,154)" d="m0 0h2l15 40 4 10-1 5-43 14-93 31-3-4-15-39-1-4 27-11 88-34z" fill="#FEFEFE"/>
<path transform="translate(472,297)" d="m0 0h8l13 4 8 6 4 5 1 9-5 10-6 7-13 9-23 12-25 9-25 7-33 6-18 2-27 2-15 5-9 6-3 4-1 7 3 5 6 4 14 4h26l21-3 21-6 15-6 14-9 5-5 3-5v-7l-2-4 1-1h7l6 3 4 6-1 7-4 6-7 7-14 8-16 7-19 5-25 4-25 3-14 5-5 5-1 7 3 5 7 4 11 2h13l17-3 14-5 13-8 6-7 2-9v-3l8 1 3 4 1 5-3 7-7 7-12 7-13 5-19 4h-22l-16-4-9-5-5-4-3-6v-8l4-5 10-5 3-1-17-5-9-5-5-5-3-4v-9l4-6 7-6 5-3-20-4-13-5-6-5-2-4v-8l4-7 9-8 13-6 14-4 7-1h20l13 3v2l-19 3-17 5-12 6-9 8-2 5 1 6 7 4 13 3 11 1h18l32-3 25-5 24-6 20-7 21-10 14-10 8-8 3-5 1-4v-8l-3-6-7-5z" fill="#FEFEFE"/>
<path transform="translate(388,456)" d="m0 0 7 1 3 3v7l-4 6-14 9-15 5-6 1h-19l-12-3-8-6-1-4 8 6 5 2h21l15-4 13-7 6-7z" fill="#FEFEFE"/>
<path transform="translate(378,483)" d="m0 0 4 2 1 2v6l-4 6-7 6-8 4-12 3h-9l-10-4-5-6 1-2 6 5 6 2h8l10-3 9-5 7-6 2-9z" fill="#FEFEFE"/>
<path transform="translate(361,511)" d="m0 0 5 5-4 6-5 4h-12l-6-3-4-4 1-3 5 5 9 1 8-4z" fill="#FEFEFE"/>
<path transform="translate(352,530)" d="m0 0 3 1 1 6-5 5-2 1h-6l-4-3 1-3 1 1h8l2-1z" fill="#FEFEFE"/>
</svg>
